<?xml version="1.0" encoding="UTF-8"?>
<svg width="375px" height="255px" viewBox="0 0 375 255" version="1.1" xmlns="http://www.w3.org/2000/svg" xmlns:xlink="http://www.w3.org/1999/xlink">
    <!-- Generator: Sketch 59 (86127) - https://sketch.com -->
    <title>No Events Artboard</title>
    <desc>Created with Sketch.</desc>
    <g id="No-Events-Artboard" stroke="none" stroke-width="1" fill="none" fill-rule="evenodd">
        <g id="Body" transform="translate(30.000000, 22.000000)">
            <text id="No-Available-Events." font-family="Avenir-Light, Avenir" font-size="17" font-weight="300" letter-spacing="-0.409999996" fill="#9B9B9B">
                <tspan x="84.461" y="206">No Available Events.</tspan>
            </text>
            <g id="ic-round-event-busy" transform="translate(63.000000, 0.000000)" fill-rule="nonzero">
                <g id="Icon" transform="translate(23.000000, 7.000000)" fill="#9B9B9B">
                    <path d="M54.44725,122.809635 L69.5263021,107.738876 L84.6053542,122.809635 C86.8948437,125.097865 90.6843437,125.097865 92.9738333,122.809635 C95.2633229,120.521404 95.2633229,116.733989 92.9738333,114.445758 L77.8947812,99.375 L92.9738333,84.3042416 C95.2633229,82.0160112 95.2633229,78.2285955 92.9738333,75.9403652 C90.6549888,73.6500141 86.9241987,73.6500141 84.6053542,75.9403652 L69.5263021,91.0111236 L54.44725,75.9403652 C52.1284055,73.6500141 48.3976154,73.6500141 46.0787708,75.9403652 C43.7892812,78.2285955 43.7892812,82.0160112 46.0787708,84.3042416 L61.1578229,99.375 L46.0787708,114.445758 C43.7892812,116.733989 43.7892812,120.521404 46.0787708,122.809635 C48.3682604,125.097865 52.1577604,125.097865 54.44725,122.809635 L54.44725,122.809635 Z M126.763542,16.5252809 L118.86875,16.5252809 L118.86875,8.63483146 C118.86875,4.29508427 115.316094,0.744382022 110.973958,0.744382022 C106.631823,0.744382022 103.079167,4.29508427 103.079167,8.63483146 L103.079167,16.5252809 L39.9208333,16.5252809 L39.9208333,8.63483146 C39.9208333,4.29508427 36.3681771,0.744382022 32.0260417,0.744382022 C27.6839062,0.744382022 24.13125,4.29508427 24.13125,8.63483146 L24.13125,16.5252809 L16.2364583,16.5252809 C7.47323958,16.5252809 0.525822917,23.6266854 0.525822917,32.3061798 L0.446875,142.772472 C0.446875,151.488022 7.51611225,158.553371 16.2364583,158.553371 L126.763542,158.553371 C135.447812,158.553371 142.553125,151.451966 142.553125,142.772472 L142.553125,32.3061798 C142.553125,23.6266854 135.447812,16.5252809 126.763542,16.5252809 Z M118.86875,142.772472 L24.13125,142.772472 C19.7891146,142.772472 16.2364583,139.22177 16.2364583,134.882022 L16.2364583,55.9775281 L126.763542,55.9775281 L126.763542,134.882022 C126.763542,139.22177 123.210885,142.772472 118.86875,142.772472 Z" id="Icon-Shape"></path>
                </g>
                <rect id="ViewBox" x="0" y="0" width="189" height="189"></rect>
            </g>
        </g>
    </g>
</svg>