<?xml version="1.0" encoding="UTF-8"?>
<svg width="375px" height="255px" viewBox="0 0 375 255" version="1.1" xmlns="http://www.w3.org/2000/svg" xmlns:xlink="http://www.w3.org/1999/xlink">
    <!-- Generator: Sketch 59 (86127) - https://sketch.com -->
    <title>Artboard</title>
    <desc>Created with Sketch.</desc>
    <g id="Artboard" stroke="none" stroke-width="1" fill="none" fill-rule="evenodd">
        <g id="Body" transform="translate(0.000000, 6.000000)">
            <rect id="Rectangle" stroke-opacity="0" stroke="#979797" fill-opacity="0" fill="#D8D8D8" x="0" y="169" width="375" height="80"></rect>
            <text id="Your-notifications-w" font-family="Avenir-Light, Avenir" font-size="17" font-weight="300" letter-spacing="-0.409999996" fill="#9B9B9B">
                <tspan x="38.9139999" y="201">Your notifications will appear here. Right </tspan>
                <tspan x="328.729" y="201" fill-opacity="0">ll</tspan>
                <tspan x="336.086" y="201">      </tspan>
                <tspan x="50.6454999" y="224">now you do not have any notifications.</tspan>
            </text>
            <g id="gridicons-speaker" transform="translate(96.000000, 0.000000)" fill-rule="nonzero">
                <g id="Icon" transform="translate(15.000000, 23.000000)" fill="#9B9B9B">
                    <path d="M130.588889,38.7894737 L130.588889,84.8157895 C143.603333,84.8157895 153.555556,74.8434211 153.555556,61.8026316 C153.555556,48.7618421 143.603333,38.7894737 130.588889,38.7894737 Z M69.3444444,31.1184211 L15.7555556,31.1184211 C7.33444444,31.1184211 0.444444444,38.0223684 0.444444444,46.4605263 L0.444444444,77.1447368 C0.444444444,85.5828947 7.33444444,92.4868421 15.7555556,92.4868421 L23.4111111,92.4868421 L23.4111111,115.5 C23.4111111,123.938158 30.3011111,130.842105 38.7222222,130.842105 L54.0333333,130.842105 L54.0333333,92.4868421 L69.3444444,92.4868421 L99.9666667,123.171053 L115.277778,123.171053 L115.277778,0.434210526 L99.9666667,0.434210526 L69.3444444,31.1184211 Z" id="Icon-Shape"></path>
                </g>
                <rect id="ViewBox" x="0" y="0" width="184" height="184"></rect>
            </g>
        </g>
    </g>
</svg>