<?xml version="1.0" encoding="UTF-8"?>
<svg width="458px" height="577px" viewBox="0 0 458 577" version="1.1" xmlns="http://www.w3.org/2000/svg" xmlns:xlink="http://www.w3.org/1999/xlink">
    <!-- Generator: Sketch 59 (86127) - https://sketch.com -->
    <title>Not Logged In Artboard</title>
    <desc>Created with Sketch.</desc>
    <g id="Not-Logged-In-Artboard" stroke="none" stroke-width="1" fill="none" fill-rule="evenodd">
        <g id="Group" transform="translate(0.000000, 225.000000)">
            <g id="Scene/Plants">
                <g id="Background-Shape-2" opacity="0.504510789" stroke-width="1" transform="translate(31.439189, 192.783824)" fill="#F2F2F2">
                    <path d="M360.21306,87.9800647 C365.466073,127.303413 238.071566,152.952687 128.420161,135.052677 C18.7687565,117.152667 -31.534109,47.2511085 20.7897133,10.0048104 C73.1135356,-27.2414876 354.960047,48.6567167 360.21306,87.9800647 Z" id="Background-Shape"></path>
                </g>
                <path d="M81.8284323,129.868148 C82.0407357,131.92262 82.3672852,133.929454 82.8284323,135.868148 C82.1679327,134.151967 81.8737607,132.097495 81.8284323,129.868148 Z M252.095686,-128.485681 C257.087744,-133.542346 260.012055,-125.706584 259.548186,-121.670531 C259.000658,-116.911648 256.609515,-112.681879 253.831294,-108.962416 C253.533493,-108.568715 253.613406,-108.584388 253.571577,-109.156758 C253.517261,-108.877783 253.412376,-108.67529 253.265036,-108.532354 C253.266285,-106.012172 253.390524,-103.425537 253.149537,-101.208152 C252.45904,-94.8581694 251.381465,-88.4912602 249.974873,-82.2610176 C249.632746,-80.7457734 249.25316,-79.2449483 248.837988,-77.7591689 C251.497588,-79.7947493 255.031236,-81.5419506 256.405987,-82.0741981 C259.973972,-83.4540294 265.434893,-84.8595641 268.75877,-82.0309412 C271.516388,-79.6844129 271.45021,-75.8000717 268.966044,-73.2986964 C266.008019,-70.3208686 260.9117,-70.7020306 257.11896,-71.2060671 C255.40333,-71.4342628 246.242692,-72.6529779 248.502104,-74.0440937 C248.33104,-73.9895524 247.972681,-73.8541396 247.586852,-73.6648125 C247.346489,-72.9382225 247.096137,-72.2147671 246.837044,-71.4950731 C246.889487,-71.460593 246.933814,-71.4242322 246.990002,-71.3897521 C246.928819,-71.4204707 246.886365,-71.4524432 246.832674,-71.4831618 C244.237378,-64.2899838 240.723709,-57.4955212 236.259201,-51.2007067 C237.833735,-51.7273121 239.455716,-52.1034587 241.087063,-52.2231988 C245.918046,-52.5786574 255.818502,-48.3200502 250.115345,-42.2114284 C244.646932,-36.3554517 236.977793,-43.3473913 231.183485,-44.5598374 C225.102614,-36.9485096 218.457983,-29.6970288 211.52679,-22.7144929 C211.92136,-22.5677957 212.259741,-22.2875664 212.440169,-21.8694167 C215.136604,-23.0643093 217.973512,-24.8271833 220.431457,-25.2158682 C223.978215,-25.7756998 231.194723,-25.8496753 233.681387,-22.5709303 C236.739927,-18.5392649 233.080167,-15.5865136 229.188785,-15.047997 C223.546186,-14.2668657 216.376503,-17.3794794 211.097883,-19.5053349 C210.477309,-19.4288518 209.815531,-19.6438823 209.440315,-20.1566956 C209.323567,-20.2018332 209.206819,-20.2463439 209.093193,-20.2896007 C202.080838,-13.3471871 194.827496,-6.6586725 187.624099,-0.122497289 C187.697144,-0.122497289 187.77019,-0.1231242 187.846357,-0.1231242 C189.692469,-1.20015748 191.657202,-2.06027952 193.758661,-2.45460661 C198.620236,-3.37303138 204.268453,-3.08277154 207.981905,0.594689019 C211.680997,4.2564768 212.738594,10.37701 208.520692,14.0500821 C200.078022,21.4024956 189.168041,3.05782276 185.153667,2.10554479 C177.837269,8.67431938 170.145654,14.7666415 162.345408,20.7222971 C163.206969,20.5085204 164.086635,20.3643308 164.990025,20.3260892 C172.349502,20.0088722 189.066901,29.8871105 179.617203,38.2488509 C171.382431,45.5354387 163.094592,30.2457037 157.054926,24.7339012 C149.707936,30.2808107 142.324735,35.7850903 135.128206,41.5288498 C138.930935,40.7295382 142.563225,40.772795 146.520161,42.1983909 C150.614448,43.6753935 157.162933,47.1685422 154.238622,52.6477452 C151.264364,58.2197312 143.339254,55.1980196 139.235603,53.16432 C136.997418,52.0553142 132.580983,48.4762787 128.623423,46.8588481 C117.107228,56.6436766 107.004492,67.5563183 99.1043549,80.6211458 C94.172232,88.7785131 90.2933358,97.5665531 87.4108534,106.656764 C85.5709842,112.458826 82.0354637,122.180337 82.2383675,129.868148 C80.1618813,114.39222 86.3332782,96.2594434 92.6601305,82.855457 C98.4775383,70.5297577 106.775367,59.8766572 116.337442,50.3971344 C114.426401,43.4547208 95.8466565,32.6122931 107.594474,26.8710412 C113.832049,23.8367914 119.749347,29.7241137 120.765739,35.6841576 C121.463728,39.7797678 119.810531,44.793176 118.132985,48.6449178 C121.135961,45.7598729 124.24632,42.9782683 127.441586,40.2988502 C131.857397,36.5956863 136.368104,33.0116355 140.917519,29.4777376 C134.098703,22.3641772 128.320628,2.74687485 138.101839,0.100683066 C152.544843,-3.79368874 144.330673,22.1215627 143.082035,26.9939158 C142.799842,26.9957965 142.585076,26.8992522 142.433367,26.7086712 C142.489556,27.1638087 142.556982,27.6509186 142.643762,28.1430438 C151.349272,21.4169146 160.170904,14.8381094 168.730322,7.93268354 C168.022344,7.34965621 166.960377,5.20812786 166.098192,4.05273069 C164.152189,1.44791504 162.301706,-1.26347551 161.002497,-4.25948369 C158.95036,-8.99391638 157.123601,-16.4698313 163.346817,-18.8652587 C170.115063,-21.4757165 172.821487,-12.9867132 172.607346,-8.0184427 C172.458758,-4.58234291 171.352464,-1.36879657 170.688812,1.97201272 C170.481538,3.01393899 170.819919,7.77720959 169.496362,5.66639988 C169.524457,6.42057395 169.505727,6.96473279 169.452036,7.34840239 C170.98911,6.1021031 172.515571,4.84075795 174.033291,3.56938223 C173.975229,3.39572785 173.935273,3.20765452 173.935273,2.9919971 C173.935273,1.50747159 175.454866,1.01534637 176.476877,1.50371013 C178.481566,-0.210891755 180.468775,-1.94931626 182.424143,-3.72598234 C186.568375,-7.48995663 190.775663,-11.3642673 194.959852,-15.3269724 C194.138247,-16.1112382 194.534066,-17.1168036 193.770523,-17.9436994 C193.008229,-18.7687144 191.448679,-19.2846622 190.542168,-20.0614051 C188.262153,-22.0161139 186.431649,-24.7858072 185.144303,-27.4846595 C183.01912,-31.9438782 180.455664,-41.1989669 187.436179,-42.905419 C194.63146,-44.6676661 197.76804,-35.7235253 197.936606,-30.2255149 C197.969695,-29.1603929 196.674857,-19.6463899 195.885093,-16.2084094 C203.62915,-23.5746149 211.267697,-31.2379763 218.235101,-39.0768728 C216.253512,-39.1991205 210.845658,-43.5555258 209.767458,-44.7234612 C207.136576,-47.5721452 203.04229,-53.7766845 208.068685,-56.6830444 C212.537563,-59.2602759 217.651987,-54.9201703 219.293323,-50.8765937 C219.563029,-50.2108141 220.317206,-44.1059537 220.25852,-41.3876672 C223.146622,-44.7153113 225.911108,-48.0699127 228.496414,-51.4452021 C230.22016,-53.6889169 231.842142,-55.9997113 233.370476,-58.3663007 C233.043332,-58.5750621 232.743659,-58.9248785 232.465837,-59.3549395 C225.32175,-60.9560705 216.721127,-72.6843235 225.392923,-76.1536496 C229.521547,-77.8030527 233.692,-73.7331458 235.501902,-70.4851193 C235.872748,-69.8205936 236.358468,-66.551879 236.758032,-63.9727667 C241.210678,-71.8448895 244.738082,-80.24111 247.541276,-88.8924833 C246.921951,-89.0811835 246.415628,-89.5883546 246.388783,-90.4165042 C242.993734,-92.5950203 240.317277,-94.4011512 238.075346,-98.365737 C236.68249,-100.828244 234.234534,-106.415903 238.763346,-107.504847 C244.656921,-108.921666 247.837828,-99.8665622 248.08381,-95.4756768 C248.112529,-94.9659981 248.03324,-93.4921301 247.943338,-92.1423905 C248.146242,-92.1593171 248.34977,-92.145525 248.547679,-92.0997605 C250.165291,-97.4629851 251.517566,-102.910216 252.652579,-108.378134 C249.538474,-109.563623 249.862496,-126.227547 252.095686,-128.485681 Z M265.663291,-113.446592 C270.699839,-115.623518 277.096049,-112.457429 274.028861,-106.165483 C270.743478,-99.4278066 259.927275,-99.9092973 253.828432,-100.365883 C254.441247,-100.365883 256.740391,-106.581838 257.464173,-107.501396 C259.598736,-110.214091 262.566802,-112.105571 265.663291,-113.446592 Z" id="Leaf-Bottom" fill="#F2F2F2" transform="translate(178.328432, 2.868148) scale(-1, 1) rotate(-3.000000) translate(-178.328432, -2.868148) "></path>
                <path d="M102.997012,218.484568 C103.209315,219.854217 103.535864,221.192106 103.997012,222.484568 C103.336512,221.340448 103.04234,219.9708 102.997012,218.484568 Z M227.413368,32.1338858 C231.058363,28.4775281 233.193575,34.1433867 232.854876,37.061764 C232.455094,40.5028019 230.70918,43.5612505 228.680638,46.2507088 C228.463196,46.5353843 228.521545,46.5240516 228.491003,46.1101842 C228.451344,46.3119049 228.374761,46.4583224 228.26718,46.561676 C228.268091,48.3839619 228.358806,50.2542981 228.182847,51.8576377 C227.678674,56.4491636 226.891873,61.0529288 225.864838,65.5578734 C225.615031,66.6535115 225.337873,67.7387235 225.034731,68.8130563 C226.976662,67.3411751 229.556786,66.0778142 230.560572,65.6929583 C233.165768,64.6952341 237.153107,63.6789244 239.580064,65.7242363 C241.593564,67.4209568 241.545243,70.2296343 239.731407,72.038321 C237.571579,74.1915196 233.850458,73.9159102 231.081155,73.551453 C229.828473,73.38645 223.139754,72.5052251 224.789483,71.4993415 C224.664579,71.538779 224.40292,71.6366929 224.121204,71.773591 C223.9457,72.2989714 223.762904,72.8220853 223.573725,73.3424794 C223.612017,73.3674112 223.644382,73.3937029 223.685409,73.4186346 C223.640735,73.3964227 223.609737,73.3733041 223.570534,73.3510922 C221.675556,78.5523133 219.11002,83.4652324 215.850221,88.0168674 C216.99988,87.6360912 218.184184,87.3641083 219.375326,87.277527 C222.902711,87.0205031 230.131615,90.0998037 225.967405,94.5168072 C221.974595,98.7511287 216.374907,93.6954186 212.144142,92.8187268 C207.704141,98.3223023 202.852506,103.565681 197.791635,108.614591 C198.079733,108.720665 198.326805,108.923292 198.458547,109.225646 C200.427372,108.361647 202.498765,107.086954 204.293455,106.805904 C206.883152,106.401103 212.152347,106.347613 213.968007,108.718398 C216.201227,111.633602 213.529021,113.768669 210.687694,114.158058 C206.567702,114.722876 201.332695,112.472216 197.478464,110.935059 C197.025347,110.990363 196.542144,110.834879 196.268177,110.464075 C196.182932,110.431438 196.097688,110.399253 196.014723,110.367975 C190.894591,115.387874 185.598499,120.224184 180.338876,124.950342 L180.338876,124.950342 L180.50116,124.949889 C181.849115,124.171111 183.283682,123.549176 184.81808,123.264047 C188.367802,122.599956 192.491897,122.809836 195.203306,125.468923 C197.90423,128.116677 198.676444,132.542293 195.596706,135.198207 C189.432217,140.514568 181.466199,127.249958 178.535069,126.561388 C173.192937,131.311117 167.576837,135.716335 161.88142,140.022732 C162.510496,139.868155 163.152792,139.763895 163.81241,139.736243 C169.185996,139.506871 181.392351,146.649597 174.492572,152.695778 C168.479881,157.964542 162.428442,146.908887 158.018528,142.92343 C152.654059,146.934272 147.26315,150.91429 142.008542,155.06747 C144.785138,154.489506 147.437286,154.520784 150.326477,155.5516 C153.315956,156.619586 158.09739,159.145401 155.962178,163.107287 C153.790498,167.136261 148.00391,164.951331 145.007594,163.48081 C143.373363,162.678913 140.148665,160.090995 137.259017,158.921469 C128.850367,165.996652 121.473766,173.887332 115.705412,183.334207 C112.10418,189.232611 109.27197,195.58704 107.1673,202.159962 C105.823904,206.355299 103.242412,213.384699 103.390564,218.943578 C101.8744,207.753292 106.380499,194.641899 111.000106,184.949786 C115.247737,176.037357 121.306469,168.334346 128.288301,161.479922 C126.892938,156.460023 113.326775,148.620113 121.904547,144.468747 C126.458966,142.274751 130.779534,146.531738 131.521661,150.841308 C132.031304,153.802749 130.824207,157.427829 129.599332,160.212934 C131.791982,158.126825 134.063037,156.115511 136.396089,154.178086 C139.620332,151.500413 142.913864,148.908869 146.235659,146.353589 C141.256841,141.209937 137.037929,127.025119 144.179766,125.111718 C154.725451,122.295788 148.727804,141.034508 147.816099,144.557594 C147.610054,144.558954 147.453241,144.489145 147.342469,144.351341 C147.383495,144.68044 147.432727,145.032658 147.496091,145.388502 C153.852494,140.524994 160.293686,135.768011 166.54342,130.774857 C166.026484,130.353284 165.251079,128.804794 164.621547,127.969353 C163.200656,126.085871 161.84951,124.125327 160.900882,121.958983 C159.402495,118.535624 158.068672,113.129962 162.612607,111.397884 C167.554501,109.510322 169.53062,115.648524 169.374263,119.240966 C169.26577,121.72553 168.458,124.049172 167.973429,126.464834 C167.822086,127.218227 168.069158,130.662438 167.102751,129.13616 C167.123264,129.681486 167.109589,130.074954 167.070386,130.352377 C168.192694,129.451207 169.307252,128.539157 170.415429,127.619855 C170.373035,127.494289 170.34386,127.358298 170.34386,127.202361 C170.34386,126.128935 171.453405,125.77309 172.199635,126.126215 C173.663376,124.886426 175.114354,123.629411 176.542083,122.344745 C179.56803,119.623102 182.640018,116.821677 185.69514,113.956337 C185.095239,113.389252 185.384249,112.662151 184.826742,112.064242 C184.270146,111.467693 183.131427,111.094623 182.46953,110.532978 C180.804757,109.119573 179.468199,107.116872 178.528231,105.165394 C176.97651,101.941036 175.104781,95.2488947 180.201665,94.0149986 C185.455362,92.7407583 187.745563,99.2080601 187.868643,103.183545 C187.892804,103.95371 186.947366,110.833066 186.370713,113.31899 C192.025104,107.992657 197.602456,102.451457 202.689767,96.7833319 C201.242892,96.6949375 197.2943,93.5449213 196.507043,92.7004142 C194.586082,90.6405965 191.596603,86.1542373 195.266669,84.0527156 C198.52966,82.1891789 202.264001,85.3274091 203.462436,88.2512261 C203.659365,88.7326359 204.210034,93.1469196 204.167184,95.1124499 C206.275956,92.7063072 208.29447,90.2806724 210.182154,87.8400785 C211.440762,86.2177 212.625066,84.546818 213.740993,82.8355918 C213.502126,82.6846412 213.283317,82.4316971 213.080463,82.1207299 C207.864146,80.962989 201.584325,72.4825599 207.916113,69.9739703 C210.930664,68.7813249 213.975756,71.7241807 215.297272,74.0727537 C215.568048,74.5532569 215.922701,76.916789 216.214447,78.7816856 C219.465585,73.0895352 222.04115,67.018422 224.087926,60.7628136 C223.635721,60.6263688 223.266025,60.2596451 223.246423,59.6608292 C220.767499,58.0855945 218.81326,56.779623 217.176295,53.9129224 C216.159289,52.1323406 214.371892,48.0920335 217.678644,47.3046428 C221.981889,46.2801736 224.304456,52.8277104 224.484062,56.0026583 C224.505031,56.3711952 224.447138,57.4369151 224.381495,58.4128807 C224.529647,58.4006415 224.678255,58.4106142 224.82276,58.4437054 C226.003873,54.5656815 226.991249,50.6269148 227.819989,46.673189 C225.546198,45.8159893 225.782785,33.7666903 227.413368,32.1338858 Z M236.702387,42.658046 C240.299921,41.1030993 244.868643,43.3645911 242.677794,47.8588384 C240.331092,52.6714644 232.605232,52.3275425 228.248916,52.0014097 C228.686641,52.0014097 230.328887,47.5614418 230.845874,46.9046148 C232.370562,44.9669752 234.490609,43.6159186 236.702387,42.658046 Z" id="Leaf-Top" fill="#C1DEE2" opacity="0.2" transform="translate(173.122964, 126.714073) rotate(-3.000000) translate(-173.122964, -126.714073) "></path>
                <g id="Plant-Right" opacity="0.7" stroke-width="1" transform="translate(165.000000, -83.000000)">
                    <path d="M79.9047528,113.040378 C66.2530447,113.763024 50.2943362,123.453253 50.3969417,138.364313 C50.4717916,149.198479 51.9215094,159.856965 51.4184788,170.735674 C51.0157194,179.430065 49.1251777,187.934396 46.1884145,196.124248 C43.3645394,203.999655 36.5431303,211.167853 35.436189,219.380461 C34.7305556,224.613392 36.1801359,231.717944 38.4174204,236.528898 C41.1381257,242.378219 39.9806746,242.014971 36.3655703,247.542924 C29.2817053,258.37603 23.0341453,269.378157 19.1082064,281.839931 C13.4530146,299.789359 10.6714461,320.367962 15.4148106,338.86673 C16.0178728,341.21586 17.3353725,349.734582 20.6839214,349.987756 C24.4238591,350.27121 22.1932685,345.554422 21.8310908,343.993101 C19.5216852,334.030746 17.4849615,325.324509 17.9135797,314.914948 C19.5678962,274.751412 45.2035015,245.709474 60.1509621,210.198324 C60.9846805,208.360426 62.6955789,204.012856 63.9005736,201.136619 C65.8029769,196.595678 67.3104972,188.177093 70.1621387,184.658557 C75.5325909,178.03009 71.2830113,190.667575 70.3556501,193.092328 C69.1832784,196.159421 67.8821244,199.424932 66.6353083,202.135537 C60.9464558,214.690583 54.5660296,228.413437 48.6881887,241.356913 C80.3924105,245.15732 98.2859955,205.641673 104.022858,180.295993 C108.749645,159.413931 111.985935,111.412785 79.9047528,113.040378" id="Leaf-Me-Alone!" fill="#69A1AC" transform="translate(60.000000, 231.500000) scale(-1, 1) rotate(6.000000) translate(-60.000000, -231.500000) "></path>
                    <path d="M210.80537,78.1211996 C187.982635,79.932006 173.33094,94.991753 166.510526,116.055531 C162.834567,127.406956 162.413232,139.068178 160.370472,150.73361 C157.297501,168.284374 150.685653,181.584667 137.763871,194.088576 C133.761608,197.961058 130.812263,201.937087 128.715679,206.190925 C124.553629,210.438027 120.930652,215.244115 118.268925,221.120186 C114.86881,228.624383 113.90672,237.627904 117.832452,245.109372 C118.887892,247.120537 121.521026,251.158021 124.250033,252.992399 C114.032868,274.752382 108.415067,298.584143 109.048331,322.385598 C109.430981,336.75335 110.132365,351.126994 110.950647,365.477066 C111.170985,369.330186 112.42574,375.692843 114.310394,369.230849 C116.035261,363.320262 113.872239,354.041458 113.672084,347.866532 C112.69822,317.785763 111.865642,290.435094 124.248351,262.330974 C125.546836,259.385362 126.923534,256.463322 128.357419,253.564853 C128.441517,253.516026 128.519729,253.457097 128.598782,253.399851 C128.653446,253.441944 128.703065,253.487403 128.757729,253.528654 C128.849397,253.365336 128.974704,253.17087 129.121036,252.953674 C129.532279,252.529385 129.891381,251.99313 130.232822,251.394579 C131.331152,249.872525 132.574133,248.084448 132.580861,247.105384 C132.580861,247.097807 132.576656,247.086022 132.576656,247.078445 C140.242263,234.565276 149.022178,222.741577 157.990476,211.149386 C157.923197,211.23357 167.718185,197.897078 166.203566,205.272473 C165.473588,208.826738 158.268843,215.595164 155.359024,219.35989 C148.922101,227.735396 141.3633,238.347681 135.081959,248.609759 C134.236766,249.095503 133.042563,251.480447 132.178869,253.256738 C131.702028,254.156669 131.257146,255.064177 130.819832,255.854668 C153.076582,263.208176 170.390004,248.395931 182.195796,231.167594 C182.210092,231.147389 182.222707,231.126343 182.236163,231.106139 C185.828864,226.345511 189.509028,221.618557 194.10671,217.855515 C201.777363,211.576201 209.992135,210.468334 219.036121,207.377925 C243.699779,198.951066 254.18606,166.987092 257.516373,143.269822 C261.273908,116.512653 242.894113,75.4828606 210.80537,78.1211996" id="Leaf-Me-Alone!" fill="#89C5CC"></path>
                    <path d="M187.087285,8.28187838 C160.498481,29.1635113 144.586107,61.0733802 131.288496,91.3053591 C116.436639,125.071454 104.873047,159.852852 99.4843227,196.372108 C95.9443747,220.365462 91.8946121,244.44009 89.9250364,268.625714 C89.2249833,277.215152 88.8748455,285.868946 89.0407006,294.486685 C89.0545865,295.194866 89.4310473,314.437622 92.9380414,310.458848 C94.9325477,308.196212 92.5847722,290.502543 92.6250129,287.616161 C92.8548439,271.35938 94.6480975,255.202131 97.0075499,239.126854 C100.892071,212.659438 103.8149,186.195152 110.209077,160.179766 C111.163144,156.295431 112.0616,152.201098 113.539379,148.477679 C115.109085,144.518959 113.591965,146.130097 117.057176,144.962594 C120.424285,143.827288 124.27953,144.598829 127.821221,143.078763 C141.869801,137.048323 151.32577,117.815648 158.339102,105.310098 C166.360518,91.0095004 172.210631,75.380055 177.309925,59.8610252 C181.055021,48.4585852 184.191433,37.0431561 186.706808,25.3142977 C187.499429,21.6177491 188.064185,17.7150456 189.314089,14.1464607 C189.650899,13.1838012 190.889167,11.5711488 190.976475,10.6889811 C191.161137,8.82194319 190.19407,7.57272465 190.321563,6 C189.227765,6.73737876 188.148642,7.49851591 187.087285,8.28187838" id="Leaf-Me-Alone!" fill="#89C5CC" transform="translate(140.000000, 158.500000) rotate(-8.000000) translate(-140.000000, -158.500000) "></path>
                    <path d="M38,328 C38,368.316787 70.6832133,401 111,401 C151.316787,401 184,368.316787 184,328" id="Base" fill="#89C5CC"></path>
                    <path d="M161.027565,264.084806 C179.094613,262.752829 199.271153,277.328505 207.986064,292.49664 C215.01153,304.726145 213.827993,320.785081 209.488635,333.777767 C206.582823,342.476182 200.240879,354.878099 189.6648,354.998958 C176.432916,355.150242 175.794849,338.796344 175.538949,329.235863 C175.198872,316.525461 173.592762,305.452985 163.577306,296.789222 C161.24306,294.770973 158.691635,292.995286 156.33382,291.004928 C152.641788,287.889659 148.561698,284.700014 148.086094,279.546212 C147.429508,272.435859 151.443098,271.156282 157.571231,272.477271 C158.615876,272.702085 169.138923,277.424009 167.580795,273.69177 C167.105191,272.551646 165.367764,271.648167 163.174937,270.971192 C157.500522,270.354223 150.733481,269.63837 148.787294,270.066022 C127.791706,274.672159 119.617215,303.755053 117.446273,322.232845 C117.21196,324.227477 117.022484,326.228615 116.857255,328.232828 L112.999987,328.232604 C113.26763,323.393002 113.621136,318.561868 114.430188,313.776147 C117.524558,295.473303 127.199937,268.591213 148.420279,265.620466 C149.203131,265.50975 152.082849,265.491157 155.57117,265.695686 C157.224419,264.771923 159.076327,264.213271 161.027565,264.084806 Z" id="Leaf-Me-Alone!" fill="#69A1AC"></path>
                </g>
                <g id="Plant-Left" opacity="0.5" stroke-width="1" transform="translate(22.000000, -212.000000)">
                    <path d="M178.22298,111.444518 C182.425309,105.452509 190.223629,90.2347729 196.138329,88.0936482 C199.947942,86.7145659 198.837195,100.980115 198.884241,103.700243 C199.067454,114.223987 198.04293,124.681002 196.777726,135.11639 C194.498335,153.936569 187.044926,170.697369 176.822023,186.715278 C171.561534,194.957467 165.391397,203.299596 156.84547,208.442327 C152.911771,210.810658 148.178543,211.207195 144.293769,213.247706 C139.769382,215.623126 142.233354,213.702848 140.194367,218.417487 C137.362802,224.963133 136.457106,233.407714 135.146985,240.392151 C129.131553,272.454512 114.568305,441.944513 117.093014,474.558062 C117.317249,477.448784 113.286509,478.140055 113.085292,474.611088 C112.015789,455.899518 121.270437,326.322179 125.939564,283.946664 C130.608691,241.571148 135.333634,204.134499 140.071325,189.473898 C145.818851,171.687472 156.199212,150.297922 164.840137,133.71131 C168.853782,126.005544 173.228734,118.565238 178.22298,111.444518 Z" id="Leaf" fill="#69A1AC"></path>
                    <path d="M209.414132,319.277765 C220.349167,311.249697 232.185522,326.401056 222.290441,334.430358 C216.820206,338.868469 211.101395,337.289712 207.88186,333.591199 C205.791868,336.13879 203.835706,338.802543 201.956089,341.052489 C196.229376,347.9085 190.816767,354.92815 185.643881,362.111477 C174.898009,377.034662 165.688992,392.800688 156.060308,408.278421 C146.558057,423.5541 137.131786,438.908021 128.519073,454.570722 C121.222883,467.840829 111.497988,483.452044 109,498 C112.790111,467.146303 127.171863,437.490438 144.298022,410.29054 C161.284824,383.314089 180.779154,353.852808 207.081026,332.563583 C204.404139,328.627042 204.329828,323.00793 209.414132,319.277765 Z" id="Leaf" fill="#C1DEE2"></path>
                    <path d="M1.9131966,244.030768 C8.03244063,245.227492 18.0312164,259.070175 23.0752982,264.344345 C29.0698505,270.611956 34.5083971,277.292338 39.6348672,284.291716 C50.6711078,299.357587 60.5410853,315.375735 68.9339235,332.079859 C82.6164473,359.310923 93.5779281,387.264554 101.533144,416.917658 C106.40282,435.069395 109.555733,453.882964 111.42432,472.565152 C111.77721,476.088501 115.4712,503.252852 110.148387,503.985007 C105.361077,504.644266 106.839698,483.358557 106.608745,480.463176 C103.998072,447.797866 96.1772343,416.014794 85.2985211,385.226103 C82.9289815,378.519078 80.7275953,370.304171 76.9381423,364.268497 C74.2092052,359.921096 76.9185722,361.437175 72.1228242,359.791894 C68.0049102,358.378312 63.3131333,358.72373 59.0962962,356.993389 C49.9356343,353.236662 42.6005721,345.943735 36.1708879,338.607909 C23.6757579,324.351374 13.774003,308.928035 8.61263648,290.66039 C5.74946717,280.531578 3.11836073,270.343849 1.65825821,259.901833 C1.28055511,257.202878 -2.02816228,243.259967 1.9131966,244.030768 Z" id="Leaf" fill="#69A1AC"></path>
                    <path d="M26.061363,13.7160319 C49.111288,53.6904115 68.0527721,97.6012194 80.2834249,142.076227 C87.6937407,169.023152 92.875997,196.674657 98.0249813,224.126418 C105.997255,266.632047 113.538111,309.134396 115.683127,352.395051 C117.841152,395.906414 122.108499,446.091658 107.860834,488 C114.977614,445.451647 108.201957,400.162237 107.002263,357.34982 C106.428958,336.911865 104.767627,316.673726 102.588271,296.3552 C100.473423,276.645138 97.0183596,257.028931 93.8009172,237.47379 C92.2336415,227.950082 90.5876488,218.440705 88.9117997,208.936528 C88.4115013,206.100946 88.2001646,197.686783 86.4014385,195.749671 C84.5910631,193.799805 75.3542884,193.004911 72.454369,191.574216 C66.6149274,188.69262 61.1221445,184.599523 56.2608889,180.274642 C46.9417982,171.983953 38.8346584,161.151161 32.435855,150.472492 C17.6306837,125.76373 11.7115834,95.6100441 12.0107586,66.9941546 C12.0682413,61.4382419 21.003398,1.60995132 17.4148953,0.786066265 C17.6309536,0.533029377 17.8353283,0.27176118 18.0280364,0 C20.7448404,4.54878452 23.4108122,9.12839556 26.061363,13.7160319 Z" id="Leaf" fill="#89C5CC"></path>
                    <path d="M274.846162,157.887288 C275.201814,157.374304 277.516546,153.806661 276.35092,154.034666 C278.724178,153.570439 273.086653,157.969398 279,155.270217 C276.192302,157.921907 277.812715,161.366495 277.85019,164.93538 C277.91133,170.729664 276.941861,176.476433 275.850557,182.146394 C274.126127,191.108872 271.55719,199.823019 267.828427,208.1592 C259.70147,226.325634 245.90148,243.814146 229.518328,255.171668 C221.430419,260.779333 213.503908,262.688536 204.279644,265.270093 C198.453207,266.901031 197.991162,269.91496 194.898475,275.568863 C188.459734,287.344734 182.135661,299.078246 176.457263,311.251437 C169.676879,325.787507 163.094762,340.339599 156.885915,355.131559 C135.969422,404.957486 118.945337,456.577892 110.004808,510 C109.785907,478.518515 117.068634,446.095278 126.255091,416.088186 C132.946871,394.2257 141.658313,373.150925 150.949917,352.289498 C153.201461,347.235572 156.613471,340.734509 157.569628,335.154756 C158.23913,331.245304 156.192265,327.485558 155.255097,323.367253 C151.601499,307.329812 151.862999,289.362708 155.071402,273.239515 C158.608912,255.460636 168.839228,247.208854 186.145128,244.690591 C192.474243,243.769436 200.51871,244.107045 206.322196,241.408429 C212.645007,238.469723 215.253262,228.810237 218.848644,222.609606 C228.505717,205.953401 239.979718,189.979083 253.15504,175.944848 C256.803162,172.05859 260.726377,168.473254 264.88847,165.150086 C267.513083,163.053353 273.057504,160.47018 274.846162,157.887288 Z" id="Leaf" fill="#89C5CC"></path>
                    <path d="M80.7914533,476 L142.208547,476 C144.96997,476 147.208547,478.238576 147.208547,481 C147.208547,481.244141 147.190665,481.487955 147.155046,481.729484 L142.408062,513.917935 C140.96096,523.730477 132.540739,531 122.622066,531 L100.377934,531 C90.4592609,531 82.03904,523.730477 80.5919379,513.917935 L75.8449542,481.729484 C75.4420714,478.997608 77.3300935,476.456384 80.0619696,476.053501 C80.3034985,476.017881 80.547312,476 80.7914533,476 Z" id="Base" fill="#C1DEE2"></path>
                </g>
                <g id="Maceta" stroke-width="1" transform="translate(32.000000, 232.000000)" fill="#F2F2F2">
                    <path d="M15.4177215,48.4556962 C15.4177215,69.7431274 17.0976047,87 39.6455696,87 C62.1935345,87 63.8734177,69.7431274 63.8734177,48.4556962" id="Base"></path>
                    <path d="M46.353417,35.1741665 C45.5269187,36.603205 44.7899627,38.0608242 44.1390143,39.5403256 C44.1160396,36.4933476 44.2845204,33.4240409 44.7446025,30.3127562 C45.5310424,24.9833358 46.7322042,19.6816031 47.8609075,14.3883552 C48.6720893,10.5844334 48.6208382,3.75184321 51.6994412,0.720495335 C52.5436123,0.0653705071 52.7468496,1.35061199 52.7468496,1.90838357 C52.7574533,2.02627925 52.7444932,-0.368253357 51.9250641,0.0488472497 C47.0544384,2.56440155 45.4762567,10.4741295 43.916926,14.4343524 C41.6418466,20.2148131 39.7060851,26.1238872 38.9090415,32.1379063 C38.7075715,33.6571528 38.5980001,35.1759528 38.5726691,36.6920733 C38.4071338,36.2865836 38.2516131,35.877968 38.0795978,35.473818 C35.2684432,28.8805917 31.4746806,22.4472391 26.743081,16.51405 C25.578443,15.0541979 10.9341658,0.649489986 9.78778975,2.85422841 C9.90089571,3.17442235 10.1377113,3.44013419 10.4988257,3.65136394 C10.5200331,3.67547897 10.5206222,3.66208173 10.5082512,3.62635577 C11.3683278,5.01564911 13.8136552,7.16143971 14.5753532,8.37880186 C16.4922637,11.4423031 17.9820814,14.6933656 19.4960519,17.8823543 C22.69483,24.6216105 25.6620943,31.428746 28.5386382,38.2501718 C29.2084376,39.839084 29.9065135,41.4190647 30.6187276,42.994133 C23.2768544,32.4045113 13.4825846,22.7906549 -1.42108547e-14,17.2870705 C4.60494447,19.6298004 7.62404905,24.037491 10.733874,27.4122547 C14.4846328,31.4827815 18.4350943,35.4438975 22.1929222,39.5099586 C26.6252623,44.3066155 31.8405077,49.35782 36.1037779,54.6658048 C40.2333239,63.3356026 44.2462293,72.0147785 46.7233678,81.1284714 C45.7083596,77.9796744 46.6438402,73.6282523 46.4700576,70.3236008 C46.3322097,67.6932768 46.0247028,65.0843884 45.6035009,62.4804124 C46.1242596,63.6549034 46.5731489,64.8302875 46.7763862,65.923502 C46.5908217,64.089867 46.3769808,62.2678429 46.1472343,60.4551969 C46.7369169,58.7582137 47.3159959,57.1746605 47.7071541,55.8702163 C49.7118395,49.1787436 52.0988467,42.6024871 55.349465,36.192803 C58.3573768,30.263633 61.8076979,24.4099342 65.5672931,18.7348651 C67.3210246,16.088911 69.0989091,13.4527816 70.8656007,10.8121864 C72.0219914,9.08349646 73.1230073,6.31562756 74.733,4.65928264 C64.3260729,14.1739995 52.9559778,23.7574888 46.353417,35.1741665" id="Fill-27"></path>
                </g>
                <g id="Top-Leaves" stroke-width="1" transform="translate(178.000000, 0.000000)" fill="#F2F2F2">
                    <path d="M211.459988,136.913619 C211.697988,126.527619 207.442988,116.955619 202.732988,107.921619 C193.563988,90.3346193 188.977988,79.8126193 190.459988,58.9256193 C191.331988,46.6416193 192.373988,33.6626193 186.103988,22.5076193 C181.538988,14.3846193 171.962988,5.69461932 161.850988,7.16361932 C145.843988,10.8096193 136.907988,26.0616193 133.481988,41.2056193 C129.235988,59.9756193 134.097988,73.9796193 148.271988,86.0066193 C156.258988,92.7816193 160.763988,99.7606193 162.941988,110.078619 C164.684988,118.329619 164.189988,127.791619 167.170988,135.726619 C171.627988,147.588619 179.674988,154.832619 191.778988,157.035619 C187.410988,133.523619 181.274988,109.229619 171.435988,87.4316193 C170.552988,85.2746193 164.205988,76.0546193 166.846988,73.7256193 C169.755988,71.1616193 174.556988,85.9036193 174.518988,85.8116193 C177.307988,92.3626193 179.660988,99.1256193 181.922988,105.916619 C181.910988,105.918619 181.897988,105.917619 181.884988,105.919619 C184.219988,112.892619 186.494988,119.937619 188.667988,127.028619 C189.511988,130.003619 190.301988,132.995619 191.003988,136.027619 C192.033988,140.476619 192.155988,152.193619 195.076988,155.672619 C195.701988,156.416619 196.337988,156.925619 196.978988,157.258619 C198.148988,162.164619 199.240988,167.081619 200.197988,172.008619 C202.696988,184.876619 204.141988,198.075619 202.521988,211.160619 C202.048988,214.979619 197.189988,228.261619 198.799988,231.652619 C201.742988,237.854619 203.397988,228.290619 204.025988,225.445619 C209.218988,201.883619 207.341988,179.762619 201.675988,156.694619 C206.884988,153.106619 211.362988,141.121619 211.459988,136.913619" id="Leaf" transform="translate(171.734760, 120.352443) rotate(-18.000000) translate(-171.734760, -120.352443) "></path>
                    <path d="M115.85853,100.65925 C108.257019,101.771171 101.081536,111.378886 97.541036,117.784796 C93.1599315,125.711405 90.104439,134.755685 87.8025125,143.463054 C84.0100599,157.806497 83.4975663,173.726407 83.4506116,188.416535 C83.4448854,190.186755 83.0755464,211.810007 85.6036573,211.455273 C88.1082908,211.103988 86.5221374,188.659157 86.7357241,184.011394 C87.1903832,174.09264 86.510685,164.31072 88.8372342,154.517877 C91.2456677,144.377773 95.6617019,134.821802 101.24187,126.063265 C101.958215,124.939269 103.473937,120.760077 105.195801,121.725391 C106.879872,122.669432 102.214748,128.236513 101.552229,129.318538 C98.8168301,133.786922 96.4416084,138.518625 94.4746637,143.379689 C90.7892908,152.487211 88.8744544,162.017885 88.9397329,171.831426 C94.724898,172.719698 99.7650864,169.33219 101.705691,163.687492 C103.382318,158.808606 103.546087,153.133437 105.450616,148.52017 C106.762485,145.343087 108.849107,142.644924 111.400695,140.363587 C118.131826,134.346332 125.159001,132.841156 127.165456,122.85456 C128.738439,115.02569 126.785237,99.0684087 115.85853,100.65925" id="Leaf" transform="translate(105.535828, 156.004078) scale(-1, 1) rotate(58.000000) translate(-105.535828, -156.004078) "></path>
                    <path d="M29.3523143,41.0512563 C40.3903669,40.2462156 52.7172123,49.0556901 58.0415826,58.2232442 C62.3337871,65.6147029 61.6107055,75.3206535 58.9595774,83.1733759 C57.1842731,88.4306594 53.3096661,95.9263239 46.8482165,95.9993701 C38.7642046,96.0908055 38.3743782,86.2065813 38.2180362,80.4282689 C38.0102659,72.7461579 37.0290143,66.0540017 30.910077,60.8176615 C29.4839707,59.597841 27.9251794,58.5246237 26.4846732,57.3216599 C24.2290287,55.4388046 21.7362997,53.5109978 21.4457299,50.3960624 C21.0445893,46.0985958 23.4966899,45.3252255 27.240669,46.1236256 C27.878894,46.2595018 34.3079438,49.1134119 33.3560062,46.8576634 C33.0654364,46.1685771 32.0039566,45.6225184 30.6642498,45.2133575 C27.1974692,44.8404643 23.0631495,44.407806 21.8741275,44.6662772 C9.04688492,47.450206 4.05268426,65.0277791 2.72634882,76.1956755 C2.57618831,77.4602301 2.45616882,78.7291115 2.35177061,79.9999262 L-4.75510154e-05,80.0008615 C0.164716163,77.0159735 0.379303579,74.0359397 0.883673399,71.0844844 C2.77417712,60.0223263 8.68534409,43.7749092 21.6499002,41.9794028 C22.1281833,41.9124864 23.8875448,41.9012485 26.0187329,42.0248651 C27.0287844,41.4665469 28.1602067,41.1288998 29.3523143,41.0512563 Z" id="Leaf-Me-Alone!" transform="translate(30.552422, 68.500000) scale(-1, 1) translate(-30.552422, -68.500000) "></path>
                </g>
            </g>
            <g id="A-Human/Sitting" transform="translate(44.000000, 105.000000)">
                <g id="Head/Front/Short-Beard" transform="translate(50.293333, 0.000000)">
                    <g id="Head" stroke-width="1" transform="translate(32.955882, 19.076923)" fill="#B28B67">
                        <path d="M23.2786569,5.6208818 C26.8151958,12.267726 26.394963,29.1279974 21.8243016,30.3159739 C20.0015772,30.7897245 16.1186878,29.6292692 12.1667596,27.2274593 L14.6470588,44.9230769 L0,44.9230769 L5.04278607,21.22513 C2.23040353,17.8965881 0.326880856,13.817355 0.64494438,9.24643316 C1.56133389,-3.92308958 19.742118,-1.02596237 23.2786569,5.6208818 Z"></path>
                    </g>
                    <path d="M48.2938298,18.2280439 C52.403491,18.5834854 56.0732213,19.8470851 57.1132524,20.5975058 C57.1132524,24.5207207 56.3593619,25.6847271 49.9201093,25.5821243 C48.3381256,26.4245687 47.1219197,27.8751627 45.8552236,29.7769186 C46.4151286,37.6525268 47.898275,41.5905807 50.3039757,41.5905807 C53.9125266,41.5905807 56.9741258,39.2806427 58.5574713,39.2806427 C59.7116764,39.2806427 59.4539778,40.7370711 58.6889103,41.8169093 C58.057705,42.7078105 54.9837878,43.5665328 54.9837878,44.9477289 C54.9837878,46.328925 57.4124373,45.2603697 57.4124373,46.0795301 C57.4124373,47.4345214 57.8392688,49.9821473 55.5069971,49.9821473 C53.1466602,49.9821473 46.3791565,49.1148207 45.2193897,45.5824444 C44.4709663,43.3029233 43.9870369,38.5795127 43.7676016,31.4122126 C43.6253761,31.393502 43.4791584,31.3846154 43.3308824,31.3846154 C41.3085455,31.3846154 39.6691176,33.0377178 39.6691176,35.0769231 C39.6691176,36.1121343 40.0916193,37.0478419 40.7722334,37.7182855 C39.9249507,38.9241946 38.9753899,40.1839281 37.8872946,41.4838094 C33.7995562,39.0108764 30.7662219,31.7716746 34.7626496,24.8174021 C35.8672748,21.410612 38.3679917,19.5909174 41.3213985,18.7459748 C43.7138103,17.7368741 46.1973601,17.623097 48.2938298,18.2280439 Z" id="Hair" fill="#191847"></path>
                </g>
                <g id="Bottom/Sitting/Skinny-Jeans-1" transform="translate(0.000000, 114.424929)">
                    <g id="Objects/Seat/Cube-2" transform="translate(6.133333, 25.656904)" fill="#69A1AC">
                        <path d="M100.293103,0 C109.129659,-1.623249e-15 116.293103,7.163444 116.293103,16 L116.293103,60 C116.293103,68.836556 109.129659,76 100.293103,76 L42.3189655,76 C33.4824095,76 26.3189655,68.836556 26.3189655,60 L26.3189655,16 C26.3189655,7.163444 33.4824095,1.623249e-15 42.3189655,0 L100.293103,0 Z M95.1551724,17.1612903 L47.4568966,17.1612903 C45.2477576,17.1612903 43.4568966,18.9521513 43.4568966,21.1612903 L43.4568966,21.1612903 L43.4568966,54.8387097 C43.4568966,57.0478487 45.2477576,58.8387097 47.4568966,58.8387097 L47.4568966,58.8387097 L95.1551724,58.8387097 C97.3643114,58.8387097 99.1551724,57.0478487 99.1551724,54.8387097 L99.1551724,54.8387097 L99.1551724,21.1612903 C99.1551724,18.9521513 97.3643114,17.1612903 95.1551724,17.1612903 L95.1551724,17.1612903 Z" id="Seat"></path>
                    </g>
                    <path d="M158.211339,12.6794563 L158.388359,12.5771985 C163.458577,9.74811672 171.739086,13.5900308 171.733336,17.861124 C171.715921,30.7900625 159.869432,91.7241032 159.250911,95.5760659 C158.63239,99.4280286 152.006479,100.445477 151.620631,95.5886895 C151.006681,87.86072 149.866037,61.1080992 151.007297,48.7253022 C151.478413,43.6136407 151.985782,38.7454793 152.485273,34.4024444 C146.269661,45.5828695 136.655614,61.5916271 123.643785,82.4281656 L116.580298,79.2139645 C122.127035,61.0121774 126.675276,48.1622001 130.225021,40.6640325 C136.303046,27.8253492 142.002188,16.8307285 144.400773,12.9579626 C148.173742,6.86610987 154.741194,8.99163319 158.211339,12.6794563 Z" id="Skin" fill="#B28B67"></path>
                    <path d="M128.035112,75.3758397 L131.25249,13.3322536 C133.527521,2.60183437 152.659347,7.55584511 152.644065,13.3047252 C152.609341,26.3564628 144.686896,71.4531321 144.676554,75.3416808 L128.035112,75.3758397 Z" id="LegLower" fill="#1F28CF" transform="translate(140.339588, 41.191090) rotate(20.000000) translate(-140.339588, -41.191090) "></path>
                    <g id="Accessories/Shoe/Flat-Sneaker" transform="translate(132.173333, 81.246862) rotate(30.000000) translate(-132.173333, -81.246862) translate(113.466667, 69.029289)" fill="#E4E4E4">
                        <path d="M1.32228382,16.0738209 C0.845132858,17.4542366 0.606557377,18.5174304 0.606557377,19.2634025 C0.606557377,20.3453742 0.788775829,21.9242401 1.15321273,24 C2.4220935,24 13.8257386,24 35.364148,24 C36.2531689,21.0927044 35.7399745,19.523149 33.8245647,19.2913339 C31.9091549,19.0595188 30.3179914,18.8502083 29.0510743,18.6634025 L13.5141387,11.8118396 C13.0088079,11.5889961 12.418506,11.8179973 12.1956625,12.3233281 C12.1929091,12.3295717 12.1902197,12.3358434 12.1875948,12.3421421 L11.3203096,14.423217 L11.3203096,14.423217 C9.54714107,15.2415913 8.10625756,15.6507784 6.99765905,15.6507784 C6.23529685,15.6507784 5.22708343,15.3929942 3.97301879,14.8774257 L3.97301732,14.8774292 C2.9514156,14.4574304 1.78276746,14.9451259 1.36276864,15.9667277 C1.34825449,16.0020318 1.33475402,16.0377441 1.32228382,16.0738209 Z" id="shoe"></path>
                    </g>
                    <g id="Accessories/Shoe/Flat-Sneaker" transform="translate(148.426667, 76.970711)" fill="#E4E4E4">
                        <path d="M1.32228382,16.0738209 C0.845132858,17.4542366 0.606557377,18.5174304 0.606557377,19.2634025 C0.606557377,20.3453742 0.788775829,21.9242401 1.15321273,24 C2.4220935,24 13.8257386,24 35.364148,24 C36.2531689,21.0927044 35.7399745,19.523149 33.8245647,19.2913339 C31.9091549,19.0595188 30.3179914,18.8502083 29.0510743,18.6634025 L13.5141387,11.8118396 C13.0088079,11.5889961 12.418506,11.8179973 12.1956625,12.3233281 C12.1929091,12.3295717 12.1902197,12.3358434 12.1875948,12.3421421 L11.3203096,14.423217 L11.3203096,14.423217 C9.54714107,15.2415913 8.10625756,15.6507784 6.99765905,15.6507784 C6.23529685,15.6507784 5.22708343,15.3929942 3.97301879,14.8774257 L3.97301732,14.8774292 C2.9514156,14.4574304 1.78276746,14.9451259 1.36276864,15.9667277 C1.34825449,16.0020318 1.33475402,16.0377441 1.32228382,16.0738209 Z" id="shoe"></path>
                    </g>
                    <path d="M173.432496,22.2561592 C173.432496,38.4853556 165.694208,76.3416855 165.689311,79.9152146 L149.04,79.9279521 C151.476943,46.1491223 152.341065,29.0777588 151.632366,28.7138615 C150.569316,28.1680155 108.054514,32.9416505 95.3036328,32.9416505 C76.9167994,32.9416505 69.3105347,21.3932133 68.6933333,-4.40536496e-13 L105.116966,-4.40536496e-13 C112.533145,0.790395701 151.216613,8.56162128 165.582886,11.233089 C171.733333,12.3767901 173.432496,17.7854334 173.432496,22.2561592 Z" id="Leg-and-Butt" fill="#2B44FF"></path>
                </g>
                <g id="Body/Jacket-2" transform="translate(13.493333, 50.175637)">
                    <path d="M31.5890641,49.9893048 L44.15625,52.467948 C31.5178005,75.8807524 24.7400271,88.2895524 23.8229297,89.6943479 C21.7594606,92.8551377 23.684719,98.6479421 24.3959015,101.698473 C19.9343418,102.730838 21.6938439,96.0556715 16.0478263,97.4493855 C10.8944033,98.721503 6.52492195,101.98621 1.71956605,97.5832317 C1.12877578,97.0419114 0.696289369,95.3498975 2.71059267,94.4820717 C7.72895677,92.320001 15.1431671,88.2715674 16.3453819,86.6998021 C17.9848166,84.5564194 23.066044,72.319587 31.5890641,49.9893048 Z M155.888837,31.2464663 L155.56908,31.713399 C153.710226,34.444989 152.006958,37.2756618 152.753818,38.2267582 C153.543356,39.232203 155.830476,38.1224657 156.734047,39.7575161 C157.336428,40.8475498 153.481168,42.1514576 145.168266,43.6692398 L128.525315,56.353362 L121.429687,47.3173689 L143.651668,37.6164483 C147.544441,33.7604733 151.303468,30.8297541 154.928749,28.8242905 C156.012777,28.4812292 157.864788,28.3775864 155.888837,31.2464663 Z" id="Skin" fill="#B28B67"></path>
                    <path d="M75.6215508,6.03768229 L80.825685,4.67474836 C93.3031653,14.7635788 100.331018,41.0095369 108.308141,43.8671052 C115.850189,46.5688204 125.845429,42.4414159 137.680714,37.0136577 L142.148946,44.9955538 C132.093319,57.9038756 109.328416,70.0578294 99.2394816,65.1390425 C83.1093728,57.2749248 76.6951781,24.7072873 75.6215508,6.03768229 Z" id="Coat-Back" fill="#DB2721" transform="translate(108.885249, 35.465647) rotate(5.000000) translate(-108.885249, -35.465647) "></path>
                    <path d="M55.1953125,69.4973262 C76.4588503,69.4973262 92.099863,69.4973262 102.118351,69.4973262 C104.262494,69.4973262 103.858471,66.4197146 103.548522,64.8667349 C99.971337,46.9434725 86.0073624,27.6230629 86.0073624,2.10975002 L72.4725493,0 C61.2775201,17.8976384 57.4060849,39.933255 55.1953125,69.4973262 Z" id="Shirt" fill="#C5CFD6"></path>
                    <path d="M76.958455,0 C89.109105,41.1722569 92.4588241,68.605412 87.0076123,82.2994652 L87.0076123,82.2994652 L44.7695312,82.2994652 C45.4378242,72.2786557 47.5807275,61.6812453 50.5157998,51.348637 C40.9503347,68.5012419 32.9095342,80.8503269 26.3940582,88.3957219 L16.5585938,86.480778 C22.8941526,47.4231905 41.2410854,18.5962645 71.5993921,-9.9475983e-14 Z" id="Coat-Front" fill="#FF4133"></path>
                </g>
            </g>
            <g id="A-Human/Standing" transform="translate(299.000000, 199.000000) scale(-1, 1) translate(-299.000000, -199.000000) translate(213.000000, 77.000000)">
                <g id="Head/Front/Afro" transform="translate(47.013333, 0.000000)">
                    <path d="M34.9852941,44.8308801 C41.5401262,44.8308801 43.9240353,36.9369714 47.6480313,32.6050086 C50.3124741,29.5055781 54.8598544,30.4297755 56.2058824,26.0906401 C59.5905905,15.1794945 50.5314446,7.5 38.7132353,7.5 C26.8950259,7.5 18.9264706,14.2351456 17.2058824,24.3598709 C15.4852941,34.4845962 23.1670848,44.8308801 34.9852941,44.8308801 Z" id="Hair-Back" fill="#191847"></path>
                    <g id="Head" stroke-width="1" transform="translate(30.970588, 17.884615)" fill="#B28B67">
                        <path d="M21.8763281,5.26957668 C25.1998225,11.5009931 24.804905,27.3074976 20.5095846,28.4212255 C18.7966722,28.8653643 15.1477222,27.7774517 11.4338828,25.5257798 L13.7647059,42.1153846 L0,42.1153846 L4.7390389,19.8986009 C2.09605772,16.7780852 0.307187914,12.9537893 0.606092309,8.66853109 C1.46727763,-3.67789649 18.5528338,-0.961839726 21.8763281,5.26957668 Z"></path>
                    </g>
                    <path d="M53.672695,23.1891501 C51.0401143,23.6862709 45.7379389,26.2146282 41.5107983,29.8413722 C41.011993,29.5742961 40.4388639,29.4230769 39.8297069,29.4230769 C37.8795867,29.4230769 36.298702,30.9728605 36.298702,32.8846154 C36.298702,33.6646837 36.5619112,34.3844856 37.0060147,34.9633258 C36.1700149,36.3502922 35.5987764,37.8081112 35.4115634,39.3067919 C32.5116819,39.3067919 21.9280828,28.2692308 32.4713943,17.8846154 C43.0147059,7.5 58.2510962,22.3245922 53.672695,23.1891501 Z" id="Hair" fill="#191847"></path>
                </g>
                <g id="Bottom/Standing/Shorts" transform="translate(0.000000, 107.107981)">
                    <polygon id="Leg" fill="#997659" points="73.3866667 9.9475983e-14 94.9616803 70.5201314 105.413155 130.492961 113.607833 130.492961 102.564158 9.9475983e-14"></polygon>
                    <path d="M65.668297,0 C67.1337242,38.7193425 65.4091144,58.6914805 65.0811342,62.2093011 C64.7531541,65.7271217 60.2620325,88.5368589 49.6298474,131.673893 L58.3618889,128.675501 C75.1650662,89.1124574 80.8909899,68.5508449 82.8181871,63.3557446 C84.7453843,58.1606443 89.8639245,37.0420628 98.1738075,0 L65.668297,0 Z" id="Leg" fill="#B28B67"></path>
                    <g id="Accessories/Shoe/Flat-Pointy" transform="translate(48.160000, 114.071130)" fill="#191847">
                        <path d="M0,23 L0.573770492,10.925 L12.6229508,10.925 C18.3363297,14.95 25.7953461,18.2083333 35,20.7 L35,23 L13.1967213,23 L5.73770492,21.85 L5.73770492,23 L0,23 Z" id="Shoe"></path>
                    </g>
                    <g id="Accessories/Shoe/Flat-Pointy" transform="translate(102.053333, 114.071130)" fill="#191847">
                        <path d="M0,23 L0.573770492,10.925 L12.6229508,10.925 C18.3363297,14.95 25.7953461,18.2083333 35,20.7 L35,23 L13.1967213,23 L5.73770492,21.85 L5.73770492,23 L0,23 Z" id="Shoe"></path>
                    </g>
                    <polygon id="Bottom" fill="#69A1AC" points="70.52 0 79.6933333 35.9292647 107.712316 35.9292647 103.534571 0"></polygon>
                    <path d="M65.36,-3.55271368e-15 C62.3416518,9.04575236 61.7683185,21.0221739 63.64,35.9292647 L92.2323156,35.9292647 L100.094571,-3.55271368e-15 L65.36,-3.55271368e-15 Z" id="Bottom" fill="#89C5CC"></path>
                </g>
                <g id="Body/Hoodie" transform="translate(12.613333, 46.967136)">
                    <path d="M39.2236931,53.2252855 L51.2233673,53.2723081 C43.8141221,77.106225 39.8142307,89.752352 39.2236931,91.2106891 C37.8949833,94.4919476 40.7067118,99.4892476 41.9091185,102.174759 C37.9929199,103.920958 38.4101951,97.4540716 33.4700159,99.7443084 C28.9608495,101.83473 25.5307378,105.622435 20.3210476,102.419239 C19.6805468,102.025425 18.9786622,100.542644 20.674504,99.383929 C24.8994643,96.4971473 30.987888,91.4447591 31.8105299,89.7817264 C32.9323492,87.5138843 35.4034035,75.3284039 39.2236931,53.2252855 L39.2236931,53.2252855 Z M109.550145,52.7627216 L127.86673,66.1655294 C132.834565,67.5013004 136.985031,69.163225 140.318127,71.1513034 C141.105462,71.8662036 142.057031,73.3139953 138.791761,73.0637806 C135.526492,72.813566 132.080625,72.6967108 131.630082,73.8065137 C131.179538,74.9163166 133.155502,76.2435192 132.244757,77.7409339 C131.637594,78.7392104 128.76911,76.2360692 123.639305,70.2315102 L105.501081,62.7365874 L109.550145,52.7627216 Z" id="Skin" fill="#B28B67"></path>
                    <path d="M70.4852727,5.49001434 L75.3577529,4.21182812 C95.0926699,18.4043734 105.286106,48.095121 129.188673,62.2047485 L124.359205,69.3663678 C84.9115866,67.9657309 71.9997323,31.7919947 70.4852727,5.49001434 Z" id="Coat-Back" fill="#E87613" transform="translate(99.836973, 36.789098) rotate(5.000000) translate(-99.836973, -36.789098) "></path>
                    <path d="M51.6796875,65.2299465 C71.5888598,65.2299465 86.2336297,65.2299465 95.6139971,65.2299465 C97.621571,65.2299465 97.243282,62.3413111 96.953075,60.8836898 C93.6037359,44.0609786 80.5291864,25.9269099 80.5291864,1.98020397 L67.8564633,0 C57.3744933,16.7986606 53.7496464,37.4812131 51.6796875,65.2299465 Z" id="Shirt" fill="#DDE3E9"></path>
                    <path d="M66.3815628,-0.0045147885 L66.9022445,-3.99680289e-15 C67.3313799,-3.55271368e-15 67.7244058,0.026817588 68.0813223,0.0804527639 L72.048138,0.305974193 C83.430531,38.7461273 86.569727,64.392799 81.4657262,77.2459893 L81.4657262,77.2459893 L46.8857688,77.2465327 C44.8370416,82.006862 42.8765795,86.0120285 41.0043825,89.2620321 L41.0043825,89.2620321 L31.5820312,89.2620321 C30.6952384,60.6902417 37.512423,36.4399475 52.033585,16.5111494 C50.1924936,15.9853655 48.7347717,14.7557125 47.6601562,12.8235152 C43.0282534,4.49518775 44.7010503,-0.0901734119 49.6510855,-1.59740752 C54.4911198,-3.07114753 58.8190555,-0.135706603 66.3815628,-0.0045147885 Z" id="Coat-Front" fill="#FF9B21"></path>
                    <path d="M59.71875,77.2459893 L46.8862016,77.245527 C49.276113,71.692347 51.7861345,65.1115514 54.4162659,57.50314 C55.503336,66.5705809 57.2709784,73.1516583 59.71875,77.2459893 Z" id="Shade" fill-opacity="0.1" fill="#000000"></path>
                </g>
            </g>
        </g>
    </g>
</svg>