<svg width="78" height="79" viewBox="0 0 78 79" fill="none" xmlns="http://www.w3.org/2000/svg">
<path d="M46.2222 25.3793L40 14.6897L27.5556 4H23.4074L26.5185 7.2069H24.4445V8.27586H27.5556L34.8148 15.7586L41.037 27.5172H46.2222V25.3793Z" fill="#FEB784"/>
<path d="M68 64.8001C68 64.9577 67.9699 65.1137 67.9114 65.2593C67.8529 65.4049 67.7672 65.5372 67.6591 65.6486C67.551 65.76 67.4227 65.8484 67.2814 65.9087C67.1402 65.969 66.9888 66 66.8359 66H59.7037V48.8965L54.595 49.423C51.1067 49.7823 47.5859 49.6049 44.1481 48.8965L22.9628 58.9756L17.1852 61.7241L18.2222 66H13.037L12 61.7241L15.1111 58.5172L20.3417 55.3718L27.5556 51.0345L33.7778 46.7586C34.8077 45.3418 35.9345 44.0027 37.1494 42.7513C37.5815 42.305 38.0244 41.8717 38.4781 41.4512C39.2974 40.6856 40.1504 39.9604 41.037 39.2759L40 33.931H38.963L33.7778 31.7931L35.8519 28.5862L35.8415 28.5715L34.343 26.483C31.9137 26.9827 29.5 27.2607 29.5 27.2607C27.8122 27.5974 25.9935 26.1129 25.6681 24.3718C25.5917 23.9676 25.5917 23.552 25.6681 23.1478C25.7497 22.7244 25.9124 22.3219 26.1465 21.964C26.3756 21.6148 26.6693 21.3156 27.0107 21.0835C27.3522 20.8515 27.7347 20.6912 28.1363 20.6117L28.9193 20.4981L30.3906 18.9655L31.1878 19.8046L33.6041 19.83L33.7778 22.1724L38.963 24.3103H42.0741L42.7456 24.1366C43.7316 23.8829 44.772 23.9831 45.6954 24.4209C46.6187 24.8586 47.3696 25.6077 47.8244 26.5445C47.9788 26.8635 48.0971 27.1998 48.177 27.5466C48.2563 27.893 48.2964 28.2477 48.2963 28.6036V29.6552L48.7111 30.9379L49.1207 32.2033C49.2617 32.6393 49.3335 33.096 49.3333 33.5556V39.2759L49.673 40.3248L50.3704 42.4828L62.2704 43.1495C63.168 43.1994 64.0129 43.6022 64.6312 44.2748C65.2494 44.9474 65.5941 45.8387 65.5941 46.7653C65.5945 46.9024 65.5871 47.0393 65.572 47.1755L64.5583 56.3793L63.8519 62.7931L67.1172 63.6349C67.3694 63.6998 67.5932 63.8497 67.7532 64.0608C67.9132 64.272 68 64.5322 68 64.8001V64.8001Z" fill="#FEC093"/>
<path d="M48.7111 30.9379L40 33.931H39.9378C40.5121 30.9366 37.4748 29.6659 35.4811 29.1595L35.8519 28.5862L35.8415 28.5715C36.7373 28.4954 40.63 28.0998 41.2315 26.916C42.3995 24.6177 40.131 24.3357 39.2728 24.3104H42.0741L42.7456 24.1367C43.7316 23.8829 44.7721 23.9832 45.6954 24.4209C46.6187 24.8586 47.3697 25.6077 47.8245 26.5445C47.9788 26.8636 48.0971 27.1998 48.1771 27.5467C48.2564 27.893 48.2964 28.2477 48.2963 28.6036V29.6552L48.7111 30.9379Z" fill="#C378CB"/>
<path d="M33.7778 31.7931L32.7407 33.9311L30.6667 40.3449L24.4444 49.9655L22.3704 53.1724H25.4815L27.5556 49.9655L28.5926 52.1035L29.6296 51.0345V48.8966L34.8148 40.3449L38.963 33.9311" fill="#FEC093"/>
<path d="M65.5941 46.7653C65.5945 46.9023 65.5871 47.0393 65.5721 47.1755L64.5584 56.3793H59.7037V48.8965L54.595 49.423C51.1067 49.7823 47.5859 49.6049 44.1482 48.8965L22.9628 58.9755L20.3417 55.3718L27.5556 51.0345L33.7778 46.7586C34.8077 45.3418 35.9345 44.0026 37.1495 42.7513C37.5816 42.305 38.0245 41.8716 38.4782 41.4512L38.963 41.4138L49.3334 40.3448L49.673 40.3248L50.3704 42.4827L62.2704 43.1495C63.168 43.1994 64.0129 43.6021 64.6312 44.2747C65.2495 44.9473 65.5941 45.8387 65.5941 46.7653V46.7653Z" fill="#BC4598"/>
<path d="M24.2717 30.9022V38.0288L23.4074 39.8103L25.6381 39.0439C26.4984 38.7483 27.2468 38.1811 27.777 37.4227C28.3073 36.6643 28.5926 35.7532 28.5926 34.8184V26.4483C27.4466 26.4483 26.3476 26.9175 25.5372 27.7528C24.7269 28.5881 24.2717 29.721 24.2717 30.9022V30.9022Z" fill="#61311C"/>
<path d="M31.6458 25.3304L31.1112 26.1455C30.9651 26.3679 30.7469 26.5292 30.4956 26.6004C30.2444 26.6716 29.9768 26.6479 29.741 26.5337C29.5052 26.4196 29.3167 26.2223 29.2095 25.9776C29.1023 25.7328 29.0833 25.4567 29.1561 25.1988L29.2309 24.9348L25.6688 23.1479C25.2825 24.632 25.3134 27.1088 27.5468 28.4366C30.6904 30.3057 34.3427 26.4824 34.3427 26.4824L31.6458 25.3304Z" fill="#6E3C26"/>
</svg>
